<svg width="20" height="15" viewBox="0 0 20 15" fill="none" xmlns="http://www.w3.org/2000/svg">
<g id="&#240;&#159;&#166;&#134; icon &#34;eye&#34;">
<path id="Vector" d="M10.075 0C3.75 0 0 7.5 0 7.5C0 7.5 3.75 15 10.075 15C16.25 15 20 7.5 20 7.5C20 7.5 16.25 0 10.075 0ZM10 2.5C12.775 2.5 15 4.75 15 7.5C15 10.275 12.775 12.5 10 12.5C7.25 12.5 5 10.275 5 7.5C5 4.75 7.25 2.5 10 2.5ZM10 5C8.625 5 7.5 6.125 7.5 7.5C7.5 8.875 8.625 10 10 10C11.375 10 12.5 8.875 12.5 7.5C12.5 7.25 12.4 7.025 12.35 6.8C12.15 7.2 11.75 7.5 11.25 7.5C10.55 7.5 10 6.95 10 6.25C10 5.75 10.3 5.35 10.7 5.15C10.475 5.075 10.25 5 10 5Z" fill="black"/>
</g>
</svg>
