<svg width="25" height="25" viewBox="0 0 25 25" fill="none" xmlns="http://www.w3.org/2000/svg">
<g id="&#240;&#159;&#166;&#134; icon &#34;google&#34;">
<path id="Vector" d="M24.7569 10.0519H23.75V10H12.5V15H19.5644C18.5338 17.9106 15.7644 20 12.5 20C8.35812 20 5 16.6419 5 12.5C5 8.35812 8.35812 5 12.5 5C14.4119 5 16.1513 5.72125 17.4756 6.89937L21.0112 3.36375C18.7787 1.28312 15.7925 0 12.5 0C5.59688 0 0 5.59688 0 12.5C0 19.4031 5.59688 25 12.5 25C19.4031 25 25 19.4031 25 12.5C25 11.6619 24.9137 10.8438 24.7569 10.0519Z" fill="#FFC107"/>
<path id="Vector_2" d="M1.4408 6.68188L5.54767 9.69375C6.65892 6.9425 9.35017 5 12.4995 5C14.4114 5 16.1508 5.72125 17.4752 6.89937L21.0108 3.36375C18.7783 1.28312 15.792 0 12.4995 0C7.6983 0 3.53455 2.71062 1.4408 6.68188Z" fill="#FF3D00"/>
<path id="Vector_3" d="M12.5007 24.9999C15.7294 24.9999 18.6632 23.7643 20.8813 21.7549L17.0126 18.4812C15.7576 19.4318 14.1976 19.9999 12.5007 19.9999C9.24943 19.9999 6.48881 17.9268 5.44881 15.0337L1.37256 18.1743C3.44131 22.2224 7.64256 24.9999 12.5007 24.9999Z" fill="#4CAF50"/>
<path id="Vector_4" d="M24.7569 10.0519H23.75V10.0001H12.5V15.0001H19.5644C19.0694 16.3982 18.17 17.6038 17.01 18.4819C17.0106 18.4813 17.0113 18.4813 17.0119 18.4807L20.8806 21.7544C20.6069 22.0032 25 18.7501 25 12.5001C25 11.6619 24.9137 10.8438 24.7569 10.0519Z" fill="#1976D2"/>
</g>
</svg>
