<svg width="39" height="39" viewBox="0 0 39 39" fill="none" xmlns="http://www.w3.org/2000/svg">
<g clip-path="url(#clip0_1501_907)">
<path d="M19.3984 10.7542C16.9049 10.7542 16.5914 10.7655 15.6116 10.8085C14.6319 10.8538 13.9646 11.0057 13.38 11.23C12.7668 11.4575 12.2113 11.8144 11.7525 12.2757C11.2851 12.7285 10.9233 13.2763 10.6924 13.881C10.4649 14.4565 10.3099 15.1159 10.2651 16.0789C10.2214 17.0475 10.21 17.3557 10.21 19.8186C10.21 22.2793 10.2214 22.5875 10.2651 23.5539C10.311 24.5191 10.4649 25.1774 10.6924 25.754C10.9278 26.3499 11.2414 26.8552 11.7525 27.3594C12.2624 27.8635 12.7747 28.1739 13.3788 28.405C13.9646 28.6294 14.6308 28.7823 15.6093 28.8265C16.5902 28.8695 16.9026 28.8809 19.3984 28.8809C21.8942 28.8809 22.2055 28.8695 23.1864 28.8265C24.1638 28.7812 24.8334 28.6294 25.418 28.405C26.0309 28.1774 26.5859 27.8205 27.0444 27.3594C27.5555 26.8552 27.8691 26.3499 28.1045 25.754C28.3308 25.1774 28.4858 24.5191 28.5318 23.5539C28.5754 22.5875 28.5869 22.2793 28.5869 19.8175C28.5869 17.3557 28.5754 17.0475 28.5318 16.08C28.4858 15.1159 28.3308 14.4565 28.1045 13.881C27.8736 13.2763 27.5118 12.7285 27.0444 12.2757C26.5857 11.8142 26.0302 11.4573 25.4169 11.23C24.8311 11.0057 24.1627 10.8527 23.1852 10.8085C22.2044 10.7655 21.8931 10.7542 19.3961 10.7542H19.3996H19.3984ZM18.5749 12.3878H19.3996C21.8529 12.3878 22.1435 12.3958 23.1117 12.4399C24.0076 12.4796 24.4946 12.628 24.8185 12.7515C25.2469 12.9158 25.5536 13.1129 25.8752 13.4301C26.1967 13.7473 26.3955 14.0487 26.562 14.4724C26.6883 14.7907 26.8376 15.2711 26.8778 16.1548C26.9226 17.1098 26.9318 17.3965 26.9318 19.8152C26.9318 22.234 26.9226 22.5218 26.8778 23.4768C26.8376 24.3605 26.6872 24.8397 26.562 25.1592C26.4147 25.5528 26.1796 25.9086 25.874 26.2004C25.5524 26.5176 25.2469 26.7136 24.8173 26.8779C24.4957 27.0025 24.0087 27.1498 23.1117 27.1906C22.1435 27.2336 21.8529 27.2438 19.3996 27.2438C16.9463 27.2438 16.6545 27.2336 15.6863 27.1906C14.7904 27.1498 14.3046 27.0025 13.9807 26.8779C13.5816 26.7328 13.2205 26.5013 12.924 26.2004C12.6182 25.9081 12.3827 25.552 12.2349 25.1581C12.1097 24.8397 11.9592 24.3594 11.919 23.4757C11.8754 22.5207 11.8662 22.234 11.8662 19.813C11.8662 17.3931 11.8754 17.1076 11.919 16.1525C11.9604 15.2688 12.1097 14.7885 12.236 14.469C12.4026 14.0464 12.6024 13.7439 12.924 13.4267C13.2456 13.1095 13.5511 12.9135 13.9807 12.7492C14.3046 12.6246 14.7904 12.4773 15.6863 12.4365C16.5339 12.398 16.8624 12.3867 18.5749 12.3856V12.3878ZM24.3039 13.8923C24.1591 13.8923 24.0157 13.9205 23.882 13.9751C23.7482 14.0298 23.6266 14.1099 23.5243 14.2109C23.4219 14.3119 23.3407 14.4318 23.2852 14.5637C23.2298 14.6957 23.2013 14.8371 23.2013 14.9799C23.2013 15.1228 23.2298 15.2642 23.2852 15.3962C23.3407 15.5281 23.4219 15.648 23.5243 15.749C23.6266 15.85 23.7482 15.9301 23.882 15.9848C24.0157 16.0394 24.1591 16.0675 24.3039 16.0675C24.5964 16.0675 24.8768 15.953 25.0836 15.749C25.2904 15.545 25.4065 15.2684 25.4065 14.9799C25.4065 14.6915 25.2904 14.4149 25.0836 14.2109C24.8768 14.0069 24.5964 13.8923 24.3039 13.8923ZM19.3996 15.1635C18.7737 15.1538 18.1521 15.2671 17.571 15.4967C16.99 15.7263 16.461 16.0676 16.0149 16.5008C15.5689 16.934 15.2146 17.4504 14.9729 18.0199C14.7311 18.5894 14.6065 19.2006 14.6065 19.8181C14.6065 20.4355 14.7311 21.0468 14.9729 21.6163C15.2146 22.1858 15.5689 22.7022 16.0149 23.1354C16.461 23.5685 16.99 23.9098 17.571 24.1394C18.1521 24.369 18.7737 24.4823 19.3996 24.4727C20.6383 24.4536 21.8198 23.9548 22.689 23.084C23.5582 22.2132 24.0454 21.0401 24.0454 19.8181C24.0454 18.596 23.5582 17.423 22.689 16.5522C21.8198 15.6813 20.6383 15.1825 19.3996 15.1635ZM19.3996 16.796C20.212 16.796 20.9911 17.1143 21.5656 17.681C22.1401 18.2476 22.4628 19.0162 22.4628 19.8175C22.4628 20.6189 22.1401 21.3874 21.5656 21.954C20.9911 22.5207 20.212 22.839 19.3996 22.839C18.5872 22.839 17.808 22.5207 17.2336 21.954C16.6591 21.3874 16.3364 20.6189 16.3364 19.8175C16.3364 19.0162 16.6591 18.2476 17.2336 17.681C17.808 17.1143 18.5872 16.796 19.3996 16.796Z" fill="white"/>
</g>
<path d="M38.5458 19.8176C38.5458 30.2436 29.9762 38.7014 19.3979 38.7014C8.81955 38.7014 0.25 30.2436 0.25 19.8176C0.25 9.39161 8.81955 0.933838 19.3979 0.933838C29.9762 0.933838 38.5458 9.39161 38.5458 19.8176Z" stroke="white" stroke-width="0.5"/>
<defs>
<clipPath id="clip0_1501_907">
<rect width="18.3769" height="18.1267" fill="white" transform="translate(10.21 10.7542)"/>
</clipPath>
</defs>
</svg>
