<svg width="39" height="39" viewBox="0 0 39 39" fill="none" xmlns="http://www.w3.org/2000/svg">
<path d="M26.3604 12.6923L26.3605 12.6924L26.3635 12.6899C26.6463 12.4599 26.9909 12.3157 27.3556 12.2752C27.7202 12.2346 28.0889 12.2994 28.4167 12.4616C28.7446 12.6237 29.0172 12.8762 29.2019 13.1879C29.3865 13.4997 29.4753 13.8574 29.4575 14.2177L29.4574 14.2177V14.2251V25.8967C29.4574 26.2194 29.3274 26.5294 29.0953 26.7583C28.8632 26.9873 28.548 27.1162 28.2189 27.1162H25.1121V19.4919V19.1942L24.8728 19.3713L19.3979 23.4241L13.9231 19.3713L13.6838 19.1942V19.4919V27.1162H10.577C10.2479 27.1162 9.93265 26.9873 9.70054 26.7583C9.4685 26.5294 9.33853 26.2194 9.33853 25.8967V14.2251H9.3389L9.33816 14.2145C9.3125 13.8511 9.39547 13.4881 9.577 13.1705C9.75854 12.8528 10.0308 12.5944 10.3602 12.4274C10.6896 12.2605 11.0617 12.1925 11.4301 12.232C11.7986 12.2715 12.147 12.4167 12.4322 12.6495L12.4321 12.6495L12.4354 12.6521L13.7423 13.6591L13.7422 13.6591L13.7446 13.6608L19.3087 17.7796L19.3975 17.8454L19.4866 17.7801L25.0507 13.7015L25.0508 13.7016L25.0536 13.6994L26.3604 12.6923Z" fill="white" stroke="black" stroke-width="0.3"/>
<path d="M38.5458 19.2102C38.5458 29.6362 29.9762 38.0939 19.3979 38.0939C8.81955 38.0939 0.25 29.6362 0.25 19.2102C0.25 8.78418 8.81955 0.326416 19.3979 0.326416C29.9762 0.326416 38.5458 8.78418 38.5458 19.2102Z" stroke="white" stroke-width="0.5"/>
</svg>
