<svg width="39" height="39" viewBox="0 0 39 39" fill="none" xmlns="http://www.w3.org/2000/svg">
<path d="M20.9303 20.3427H22.8445L23.6102 17.3216H20.9303V15.811C20.9303 15.0331 20.9303 14.3005 22.4617 14.3005H23.6102V11.7627C23.3606 11.7302 22.418 11.657 21.4226 11.657C19.3437 11.657 17.8674 12.9085 17.8674 15.2068V17.3216H15.5703V20.3427H17.8674V26.7626H20.9303V20.3427Z" fill="white"/>
<path d="M38.5458 19.2102C38.5458 29.6362 29.9762 38.0939 19.3979 38.0939C8.81955 38.0939 0.25 29.6362 0.25 19.2102C0.25 8.78418 8.81955 0.326416 19.3979 0.326416C29.9762 0.326416 38.5458 8.78418 38.5458 19.2102Z" stroke="white" stroke-width="0.5"/>
</svg>
